<mxfile host="app.diagrams.net" modified="2021-09-01T14:19:42.656Z" agent="5.0 (Windows NT 10.0; Win64; x64) AppleWebKit/537.36 (KHTML, like Gecko) Chrome/92.0.4515.159 Safari/537.36 Edg/92.0.902.84" etag="vL8qLFDJUGjARIJ2Scxy" version="15.0.4" type="github">
  <diagram id="eD45tQ0M6uP_YEVA9Wuh" name="Page-1">
    <mxGraphModel dx="1955" dy="1170" grid="1" gridSize="10" guides="1" tooltips="1" connect="1" arrows="1" fold="1" page="1" pageScale="1" pageWidth="850" pageHeight="1100" math="0" shadow="0">
      <root>
        <mxCell id="0" />
        <mxCell id="1" parent="0" />
        <mxCell id="7XWaIc_C9YG2E7dga8s_-1" value="" style="ellipse;shape=cloud;whiteSpace=wrap;html=1;" vertex="1" parent="1">
          <mxGeometry x="30" y="10" width="200" height="120" as="geometry" />
        </mxCell>
        <mxCell id="7XWaIc_C9YG2E7dga8s_-2" value="Cloud&amp;nbsp;" style="text;html=1;strokeColor=none;fillColor=none;align=center;verticalAlign=middle;whiteSpace=wrap;rounded=0;" vertex="1" parent="1">
          <mxGeometry x="100" y="50" width="80" height="50" as="geometry" />
        </mxCell>
        <mxCell id="7XWaIc_C9YG2E7dga8s_-3" value="" style="endArrow=classic;startArrow=classic;html=1;" edge="1" parent="1">
          <mxGeometry width="50" height="50" relative="1" as="geometry">
            <mxPoint x="129.5" y="190" as="sourcePoint" />
            <mxPoint x="129.5" y="120" as="targetPoint" />
          </mxGeometry>
        </mxCell>
        <mxCell id="7XWaIc_C9YG2E7dga8s_-4" value="" style="rounded=0;whiteSpace=wrap;html=1;" vertex="1" parent="1">
          <mxGeometry x="70" y="190" width="150" height="70" as="geometry" />
        </mxCell>
        <mxCell id="7XWaIc_C9YG2E7dga8s_-5" value="Database information in Dashboard .." style="text;html=1;strokeColor=none;fillColor=none;align=center;verticalAlign=middle;whiteSpace=wrap;rounded=0;" vertex="1" parent="1">
          <mxGeometry x="100" y="200" width="90" height="50" as="geometry" />
        </mxCell>
        <mxCell id="7XWaIc_C9YG2E7dga8s_-6" value="" style="shape=flexArrow;endArrow=classic;startArrow=classic;html=1;" edge="1" parent="1" target="7XWaIc_C9YG2E7dga8s_-7">
          <mxGeometry width="100" height="100" relative="1" as="geometry">
            <mxPoint x="220" y="220" as="sourcePoint" />
            <mxPoint x="360" y="220" as="targetPoint" />
          </mxGeometry>
        </mxCell>
        <mxCell id="7XWaIc_C9YG2E7dga8s_-7" value="" style="rounded=1;whiteSpace=wrap;html=1;" vertex="1" parent="1">
          <mxGeometry x="420" y="195" width="120" height="60" as="geometry" />
        </mxCell>
        <mxCell id="7XWaIc_C9YG2E7dga8s_-8" value="Access Control System&amp;nbsp;" style="text;html=1;strokeColor=none;fillColor=none;align=center;verticalAlign=middle;whiteSpace=wrap;rounded=0;" vertex="1" parent="1">
          <mxGeometry x="440" y="215" width="90" height="20" as="geometry" />
        </mxCell>
        <mxCell id="7XWaIc_C9YG2E7dga8s_-9" value="" style="endArrow=none;dashed=1;html=1;dashPattern=1 3;strokeWidth=2;" edge="1" parent="1">
          <mxGeometry width="50" height="50" relative="1" as="geometry">
            <mxPoint x="75" y="320" as="sourcePoint" />
            <mxPoint x="680" y="320" as="targetPoint" />
          </mxGeometry>
        </mxCell>
        <mxCell id="7XWaIc_C9YG2E7dga8s_-10" value="" style="endArrow=none;dashed=1;html=1;dashPattern=1 3;strokeWidth=2;" edge="1" parent="1">
          <mxGeometry width="50" height="50" relative="1" as="geometry">
            <mxPoint x="80" y="840" as="sourcePoint" />
            <mxPoint x="80" y="320" as="targetPoint" />
          </mxGeometry>
        </mxCell>
        <mxCell id="7XWaIc_C9YG2E7dga8s_-13" value="ACCESS CONTROL SYSTEM&amp;nbsp;" style="text;html=1;strokeColor=none;fillColor=none;align=center;verticalAlign=middle;whiteSpace=wrap;rounded=0;" vertex="1" parent="1">
          <mxGeometry x="210" y="290" width="310" height="50" as="geometry" />
        </mxCell>
        <mxCell id="7XWaIc_C9YG2E7dga8s_-14" value="" style="whiteSpace=wrap;html=1;aspect=fixed;" vertex="1" parent="1">
          <mxGeometry x="130" y="390" width="210" height="210" as="geometry" />
        </mxCell>
        <mxCell id="7XWaIc_C9YG2E7dga8s_-15" value="" style="endArrow=none;html=1;entryX=0.25;entryY=0;entryDx=0;entryDy=0;" edge="1" parent="1" target="7XWaIc_C9YG2E7dga8s_-14">
          <mxGeometry width="50" height="50" relative="1" as="geometry">
            <mxPoint x="183" y="600" as="sourcePoint" />
            <mxPoint x="360" y="390" as="targetPoint" />
            <Array as="points" />
          </mxGeometry>
        </mxCell>
        <mxCell id="7XWaIc_C9YG2E7dga8s_-16" value="door casting&amp;nbsp;" style="text;html=1;strokeColor=none;fillColor=none;align=center;verticalAlign=middle;whiteSpace=wrap;rounded=0;" vertex="1" parent="1">
          <mxGeometry x="90" y="530" width="40" height="20" as="geometry" />
        </mxCell>
        <mxCell id="7XWaIc_C9YG2E7dga8s_-23" value="" style="ellipse;whiteSpace=wrap;html=1;aspect=fixed;" vertex="1" parent="1">
          <mxGeometry x="80" y="424.8" width="145.2" height="145.2" as="geometry" />
        </mxCell>
        <mxCell id="7XWaIc_C9YG2E7dga8s_-18" value="" style="verticalLabelPosition=bottom;verticalAlign=top;html=1;shape=mxgraph.basic.arc;startAngle=0.38974257458147554;endAngle=0.7436371943260041;rotation=-215;" vertex="1" parent="1">
          <mxGeometry x="151.27" y="547.3" width="206.58" height="70" as="geometry" />
        </mxCell>
        <mxCell id="7XWaIc_C9YG2E7dga8s_-19" value="" style="strokeWidth=2;html=1;shape=mxgraph.flowchart.annotation_1;align=left;pointerEvents=1;rotation=-180;" vertex="1" parent="1">
          <mxGeometry x="130" y="447.3" width="50" height="100" as="geometry" />
        </mxCell>
        <mxCell id="7XWaIc_C9YG2E7dga8s_-21" value="door lock" style="text;html=1;strokeColor=none;fillColor=none;align=center;verticalAlign=middle;whiteSpace=wrap;rounded=0;" vertex="1" parent="1">
          <mxGeometry x="130" y="470" width="40" height="20" as="geometry" />
        </mxCell>
        <mxCell id="7XWaIc_C9YG2E7dga8s_-24" value="" style="shape=flexArrow;endArrow=classic;html=1;" edge="1" parent="1">
          <mxGeometry width="50" height="50" relative="1" as="geometry">
            <mxPoint x="154.5" y="547.3" as="sourcePoint" />
            <mxPoint x="154.5" y="677.3" as="targetPoint" />
            <Array as="points">
              <mxPoint x="154.5" y="627.3" />
            </Array>
          </mxGeometry>
        </mxCell>
        <mxCell id="7XWaIc_C9YG2E7dga8s_-27" value="" style="rounded=1;whiteSpace=wrap;html=1;" vertex="1" parent="1">
          <mxGeometry x="120" y="679" width="390" height="141" as="geometry" />
        </mxCell>
        <mxCell id="7XWaIc_C9YG2E7dga8s_-28" value="a solenoid lock with a relay, an RFID card reader, a Keypad that acts as an override to the RFID , an ultrasonic sensor , LEDs in place of a buzzer, LCD&amp;nbsp;" style="text;html=1;strokeColor=none;fillColor=none;align=center;verticalAlign=middle;whiteSpace=wrap;rounded=0;" vertex="1" parent="1">
          <mxGeometry x="160" y="710" width="310" height="70" as="geometry" />
        </mxCell>
        <mxCell id="7XWaIc_C9YG2E7dga8s_-29" value="" style="endArrow=none;dashed=1;html=1;dashPattern=1 3;strokeWidth=2;" edge="1" parent="1">
          <mxGeometry width="50" height="50" relative="1" as="geometry">
            <mxPoint x="680" y="841.3333129882812" as="sourcePoint" />
            <mxPoint x="680" y="320" as="targetPoint" />
          </mxGeometry>
        </mxCell>
        <mxCell id="7XWaIc_C9YG2E7dga8s_-30" value="" style="endArrow=none;dashed=1;html=1;dashPattern=1 3;strokeWidth=2;" edge="1" parent="1">
          <mxGeometry width="50" height="50" relative="1" as="geometry">
            <mxPoint x="80" y="840" as="sourcePoint" />
            <mxPoint x="680" y="840" as="targetPoint" />
          </mxGeometry>
        </mxCell>
      </root>
    </mxGraphModel>
  </diagram>
</mxfile>
